{
  "source": "C:\\Users\\Peter\\Desktop\\stuff\\MIUN\\quantitative_research\\video_compression\\videos\\UVG\\YachtRide_1920x1080_120fps_420_8bit_YUV.y4m",
  "output": "C:\\Users\\Peter\\Desktop\\stuff\\MIUN\\quantitative_research\\video_compression\\compressed_videos\\UVG\\h264\\1\\YachtRide_1920x1080_120fps_420_8bit_YUV_h264.mp4",
  "codec": "h264",
  "ok": "[yuv4mpegpipe @ 0000015c49745e00] Stream #0: not enough frames to estimate rate; consider increasing probesize\nInput #0, yuv4mpegpipe, from 'C:\\Users\\Peter\\Desktop\\stuff\\MIUN\\quantitative_research\\video_compression\\videos\\UVG\\YachtRide_1920x1080_120fps_420_8bit_YUV.y4m':\n  Duration: 00:00:05.00, start: 0.000000, bitrate: 2985989 kb/s\n  Stream #0:0: Video: rawvideo (I420 / 0x30323449), yuv420p(progressive), 1920x1080, 120 fps, 120 tbr, 120 tbn\n[out#0/mp4 @ 0000015c4974a600] Codec AVOption b:a (set bitrate (in bits/s)) has not been used for any stream. The most likely reason is either wrong type (e.g. a video option with no video streams) or that it is a private option of some decoder which was not actually used for any stream.\nStream mapping:\n  Stream #0:0 -> #0:0 (rawvideo (native) -> h264 (libx264))\nPress [q] to stop, [?] for help\n[libx264 @ 0000015c4974ca80] using cpu capabilities: MMX2 SSE2Fast SSSE3 SSE4.2 AVX FMA3 BMI2 AVX2\n[libx264 @ 0000015c4974ca80] profile High, level 5.1, 4:2:0, 8-bit\n[libx264 @ 0000015c4974ca80] 264 - core 165 r3222 b35605a - H.264/MPEG-4 AVC codec - Copyleft 2003-2025 - http://www.videolan.org/x264.html - options: cabac=1 ref=5 deblock=1:0:0 analyse=0x3:0x113 me=hex subme=8 psy=1 psy_rd=1.00:0.00 mixed_ref=1 me_range=16 chroma_me=1 trellis=2 8x8dct=1 cqm=0 deadzone=21,11 fast_pskip=1 chroma_qp_offset=-2 threads=18 lookahead_threads=3 sliced_threads=0 nr=0 decimate=1 interlaced=0 bluray_compat=0 constrained_intra=0 bframes=3 b_pyramid=2 b_adapt=1 b_bias=0 direct=3 weightb=1 open_gop=0 weightp=2 keyint=250 keyint_min=25 scenecut=40 intra_refresh=0 rc_lookahead=50 rc=cbr mbtree=1 bitrate=1000 ratetol=1.0 qcomp=0.60 qpmin=0 qpmax=69 qpstep=4 vbv_maxrate=1000 vbv_bufsize=1000 nal_hrd=none filler=0 ip_ratio=1.40 aq=1:1.00\nOutput #0, mp4, to 'C:\\Users\\Peter\\Desktop\\stuff\\MIUN\\quantitative_research\\video_compression\\compressed_videos\\UVG\\h264\\1\\YachtRide_1920x1080_120fps_420_8bit_YUV_h264.mp4':\n  Metadata:\n    encoder         : Lavf62.3.100\n  Stream #0:0: Video: h264 (avc1 / 0x31637661), yuv420p(tv, progressive), 1920x1080, q=2-31, 1000 kb/s, 120 fps, 15360 tbn\n    Metadata:\n      encoder         : Lavc62.11.100 libx264\n    Side data:\n      cpb: bitrate max/min/avg: 1000000/0/1000000 buffer size: 1000000 vbv_delay: N/A\nframe=    0 fps=0.0 q=0.0 size=       0KiB time=N/A bitrate=N/A speed=N/A elapsed=0:00:00.50    \nframe=    0 fps=0.0 q=0.0 size=       0KiB time=N/A bitrate=N/A speed=N/A elapsed=0:00:01.02    \nframe=    2 fps=1.3 q=58.0 size=       0KiB time=-00:00:00.00 bitrate=N/A speed=N/A elapsed=0:00:01.54    \nframe=   24 fps= 12 q=55.0 size=       0KiB time=00:00:00.18 bitrate=   2.1kbits/s speed=0.0893x elapsed=0:00:02.05    \nframe=   44 fps= 17 q=54.0 size=       0KiB time=00:00:00.35 bitrate=   1.1kbits/s speed=0.136x elapsed=0:00:02.58    \nframe=   64 fps= 21 q=53.0 size=       0KiB time=00:00:00.51 bitrate=   0.7kbits/s speed=0.166x elapsed=0:00:03.10    \nframe=   84 fps= 23 q=53.0 size=       0KiB time=00:00:00.68 bitrate=   0.6kbits/s speed=0.189x elapsed=0:00:03.61    \nframe=  104 fps= 25 q=53.0 size=       0KiB time=00:00:00.85 bitrate=   0.5kbits/s speed=0.206x elapsed=0:00:04.13    \nframe=  127 fps= 27 q=53.0 size=       0KiB time=00:00:01.03 bitrate=   0.4kbits/s speed=0.222x elapsed=0:00:04.65    \nframe=  152 fps= 29 q=53.0 size=       0KiB time=00:00:01.25 bitrate=   0.3kbits/s speed=0.242x elapsed=0:00:05.16    \nframe=  180 fps= 32 q=53.0 size=       0KiB time=00:00:01.48 bitrate=   0.3kbits/s speed=0.261x elapsed=0:00:05.68    \nframe=  208 fps= 34 q=53.0 size=       0KiB time=00:00:01.71 bitrate=   0.2kbits/s speed=0.277x elapsed=0:00:06.20    \nframe=  233 fps= 35 q=54.0 size=       0KiB time=00:00:01.92 bitrate=   0.2kbits/s speed=0.287x elapsed=0:00:06.70    \nframe=  249 fps= 34 q=54.0 size=       0KiB time=00:00:02.05 bitrate=   0.2kbits/s speed=0.285x elapsed=0:00:07.23    \nframe=  278 fps= 36 q=54.0 size=     256KiB time=00:00:02.30 bitrate= 912.0kbits/s speed=0.297x elapsed=0:00:07.74    \nframe=  306 fps= 37 q=54.0 size=     256KiB time=00:00:02.53 bitrate= 828.0kbits/s speed=0.307x elapsed=0:00:08.25    \nframe=  334 fps= 38 q=54.0 size=     256KiB time=00:00:02.76 bitrate= 758.1kbits/s speed=0.315x elapsed=0:00:08.77    \nframe=  358 fps= 39 q=53.0 size=     256KiB time=00:00:02.96 bitrate= 707.0kbits/s speed=0.319x elapsed=0:00:09.28    \nframe=  386 fps= 39 q=53.0 size=     256KiB time=00:00:03.20 bitrate= 655.5kbits/s speed=0.326x elapsed=0:00:09.80    \nframe=  414 fps= 40 q=53.0 size=     256KiB time=00:00:03.43 bitrate= 610.9kbits/s speed=0.333x elapsed=0:00:10.32    \nframe=  442 fps= 41 q=53.0 size=     256KiB time=00:00:03.66 bitrate= 572.1kbits/s speed=0.338x elapsed=0:00:10.84    \nframe=  468 fps= 41 q=53.0 size=     256KiB time=00:00:03.87 bitrate= 541.3kbits/s speed=0.341x elapsed=0:00:11.35    \nframe=  483 fps= 41 q=53.0 size=     256KiB time=00:00:04.00 bitrate= 523.3kbits/s speed=0.338x elapsed=0:00:11.86    \nframe=  504 fps= 41 q=53.0 size=     256KiB time=00:00:04.18 bitrate= 501.4kbits/s speed=0.338x elapsed=0:00:12.38    \nframe=  536 fps= 42 q=53.0 size=     512KiB time=00:00:04.45 bitrate= 942.6kbits/s speed=0.345x elapsed=0:00:12.89    \n[mp4 @ 0000015c4974b700] Starting second pass: moving the moov atom to the beginning of the file\n[out#0/mp4 @ 0000015c4974a600] video:558KiB audio:0KiB subtitle:0KiB other streams:0KiB global headers:0KiB muxing overhead: 1.406520%\nframe=  600 fps= 45 q=-1.0 Lsize=     566KiB time=00:00:04.98 bitrate= 930.9kbits/s speed=0.375x elapsed=0:00:13.30    \n[libx264 @ 0000015c4974ca80] frame I:3     Avg QP:48.02  size:  7199\n[libx264 @ 0000015c4974ca80] frame P:151   Avg QP:49.79  size:  2069\n[libx264 @ 0000015c4974ca80] frame B:446   Avg QP:50.30  size:   532\n[libx264 @ 0000015c4974ca80] consecutive B-frames:  0.8%  0.0%  0.5% 98.7%\n[libx264 @ 0000015c4974ca80] mb I  I16..4: 34.4% 65.5%  0.1%\n[libx264 @ 0000015c4974ca80] mb P  I16..4:  3.2%  1.3%  0.0%  P16..4: 11.4%  0.3%  0.5%  0.0%  0.0%    skip:83.3%\n[libx264 @ 0000015c4974ca80] mb B  I16..4:  0.0%  0.0%  0.0%  B16..8:  7.3%  0.0%  0.0%  direct: 0.0%  skip:92.7%  L0:14.2% L1:85.8% BI: 0.0%\n[libx264 @ 0000015c4974ca80] 8x8 transform intra:40.2% inter:99.2%\n[libx264 @ 0000015c4974ca80] direct mvs  spatial:97.8% temporal:2.2%\n[libx264 @ 0000015c4974ca80] coded y,uvDC,uvAC intra: 1.6% 15.2% 0.3% inter: 0.1% 0.4% 0.0%\n[libx264 @ 0000015c4974ca80] i16 v,h,dc,p: 28% 54%  3% 15%\n[libx264 @ 0000015c4974ca80] i8 v,h,dc,ddl,ddr,vr,hd,vl,hu:  9% 13% 70%  1%  2%  1%  2%  1%  2%\n[libx264 @ 0000015c4974ca80] i4 v,h,dc,ddl,ddr,vr,hd,vl,hu: 20% 21% 17%  7% 12%  4% 11%  1%  6%\n[libx264 @ 0000015c4974ca80] i8c dc,h,v,p: 91%  8%  1%  0%\n[libx264 @ 0000015c4974ca80] Weighted P-Frames: Y:0.0% UV:0.0%\n[libx264 @ 0000015c4974ca80] ref P L0: 68.6%  0.9% 17.3%  5.9%  7.3%\n[libx264 @ 0000015c4974ca80] ref B L0: 77.1% 17.4%  4.2%  1.3%\n[libx264 @ 0000015c4974ca80] ref B L1: 92.2%  7.8%\n[libx264 @ 0000015c4974ca80] kb/s:913.72\n",
  "seconds": 13.508141279220581,
  "probe_out": {}
}